# xmcd
# Copyright (C) 1995-1998 Ti Kan
#
# Track frame offsets:
#       150
#       8199
#       11317
#       13970
#       27182
#       32000
#       37414
#       40400
#       59805
#       64086
#       67754
#       75538
#       84509
#       85967
#
# Disc length: 1188 seconds
#
# Revision: 0
# Processed by: cddbd v1.5.2PL0 Copyright (c) Steve Scherf et al.
# Submitted via: CD-Import v1.0
#
DISCID=af04a20e
DTITLE=La Casa Fantom - Familien and Leter I Morket
DYEAR=1900
DGENRE=
TTITLE0=Vil Ha Hevn
TTITLE1=Drommedolker
TTITLE2=Rus
TTITLE3=Familien
TTITLE4=Tiden
TTITLE5=Voksen
TTITLE6=Kvalmen
TTITLE7=Kista
TTITLE8=Gjenfodt Til Jord
TTITLE9=Evig Hverdag
TTITLE10=Maskinens Ener
TTITLE11=Logaritmisk Dodsstatestikk
TTITLE12=Oyeblikk
TTITLE13=Leter I Morket
EXTD=
EXTT0=
EXTT1=
EXTT2=
EXTT3=
EXTT4=
EXTT5=
EXTT6=
EXTT7=
EXTT8=
EXTT9=
EXTT10=
EXTT11=
EXTT12=
EXTT13=
PLAYORDER=
